<?xml version="1.0" encoding="UTF-8" standalone="no"?>
<!DOCTYPE svg PUBLIC "-//W3C//DTD SVG 1.1//EN" "http://www.w3.org/Graphics/SVG/1.1/DTD/svg11.dtd">
<svg width="100%" height="100%" viewBox="0 0 30 30" version="1.1" xmlns="http://www.w3.org/2000/svg" xmlns:xlink="http://www.w3.org/1999/xlink" xml:space="preserve" xmlns:serif="http://www.serif.com/" style="fill-rule:evenodd;clip-rule:evenodd;stroke-linejoin:round;stroke-miterlimit:2;">
    <path d="M26.98,5.99C26.721,5.998 26.474,6.107 26.293,6.293L11,21.586L4.707,15.293C4.519,15.097 4.258,14.986 3.986,14.986C3.437,14.986 2.986,15.437 2.986,15.986C2.986,16.258 3.097,16.519 3.293,16.707L10.293,23.707C10.681,24.095 11.319,24.095 11.707,23.707L27.707,7.707C27.901,7.519 28.01,7.26 28.01,6.99C28.01,6.441 27.559,5.99 27.01,5.99C27,5.99 26.99,5.99 26.98,5.99Z" style="fill:rgb(38,123,48);fill-rule:nonzero;stroke:rgb(38,123,48);stroke-width:0.85px;"/>
</svg>
