<?xml version="1.0" encoding="UTF-8" standalone="no"?>
<!DOCTYPE svg PUBLIC "-//W3C//DTD SVG 1.1//EN" "http://www.w3.org/Graphics/SVG/1.1/DTD/svg11.dtd">
<svg width="100%" height="100%" viewBox="0 0 24 24" version="1.1" xmlns="http://www.w3.org/2000/svg" xmlns:xlink="http://www.w3.org/1999/xlink" xml:space="preserve" xmlns:serif="http://www.serif.com/" style="fill-rule:evenodd;clip-rule:evenodd;stroke-linejoin:round;stroke-miterlimit:2;">
    <path d="M4.99,3.99C4.442,3.99 3.99,4.442 3.99,4.99C3.99,5.26 4.1,5.519 4.293,5.707L10.586,12L4.293,18.293C4.097,18.481 3.986,18.742 3.986,19.014C3.986,19.563 4.437,20.014 4.986,20.014C5.258,20.014 5.519,19.903 5.707,19.707L12,13.414L18.293,19.707C18.481,19.903 18.742,20.014 19.014,20.014C19.563,20.014 20.014,19.563 20.014,19.014C20.014,18.742 19.903,18.481 19.707,18.293L13.414,12L19.707,5.707C19.901,5.519 20.01,5.26 20.01,4.99C20.01,4.441 19.559,3.99 19.01,3.99L18.98,3.99C18.721,3.998 18.474,4.107 18.293,4.293L12,10.586L5.707,4.293C5.519,4.1 5.26,3.99 4.99,3.99Z" style="fill:rgb(255,0,0);fill-rule:nonzero;"/>
</svg>
