<?xml version="1.0" encoding="UTF-8" standalone="no"?>
<!DOCTYPE svg PUBLIC "-//W3C//DTD SVG 1.1//EN" "http://www.w3.org/Graphics/SVG/1.1/DTD/svg11.dtd">
<svg width="100%" height="100%" viewBox="0 0 20 27" version="1.1" xmlns="http://www.w3.org/2000/svg" xmlns:xlink="http://www.w3.org/1999/xlink" xml:space="preserve" xmlns:serif="http://www.serif.com/" style="fill-rule:evenodd;clip-rule:evenodd;stroke-linejoin:round;stroke-miterlimit:2;">
    <g transform="matrix(1,0,0,1,-5,-1.99999)">
        <g transform="matrix(8.53333,0,0,8.53333,0,0)">
            <g>
                <path d="M1.523,0.234C1.459,0.234 1.406,0.287 1.406,0.352C1.406,0.944 0.586,1.406 0.586,2.227C0.586,2.85 1.261,3.253 1.499,3.279C1.507,3.28 1.515,3.281 1.523,3.281C1.588,3.281 1.641,3.229 1.641,3.164C1.641,3.129 1.625,3.095 1.597,3.073L1.597,3.073C1.491,2.986 1.289,2.736 1.289,2.506C1.289,2.13 1.641,1.992 1.641,1.992C1.44,2.559 2.097,2.628 2.229,3.189L2.23,3.189C2.241,3.243 2.289,3.281 2.344,3.281C2.368,3.281 2.392,3.273 2.412,3.259C2.415,3.257 2.417,3.256 2.419,3.254C2.438,3.242 2.93,2.916 2.93,2.227C2.93,1.945 2.789,1.461 2.688,1.247C2.687,1.247 2.687,1.247 2.687,1.246C2.687,1.246 2.687,1.246 2.687,1.246C2.669,1.201 2.626,1.172 2.578,1.172C2.522,1.172 2.473,1.212 2.463,1.268L2.463,1.268C2.463,1.27 2.409,1.509 2.227,1.641C2.227,1.088 1.828,0.518 1.618,0.282C1.615,0.278 1.611,0.274 1.607,0.27C1.585,0.247 1.555,0.234 1.523,0.234L1.523,0.234Z" style="fill:white;fill-rule:nonzero;"/>
            </g>
        </g>
    </g>
</svg>
